<svg width="35" height="36" viewBox="0 0 35 36" xmlns="http://www.w3.org/2000/svg"><title>Group 11</title><g fill="none" fill-rule="evenodd"><path d="M29.4 13c0 2-.3 8.2-5 11.4-4.3 3-9 3.3-11.3 3.3h-3c2.8 2.7 6.6 4.8 12.2 4 1 0 6.3 4 6.3 4V29c3.5-2.3 5.3-5.2 5.6-9.5.3-3.7-1.6-7-4.5-9.5v3zm-15 12.6c8 0 13.2-6 13.2-13S21 0 14.4 0C6.4 0 0 5.7 0 12.7c0 4 1.5 7.5 4.4 10V29l6.3-3.6 3.7.3z" fill="#008FEB"/><path d="M13 18.3c0-.4 0-.7.4-1s.5-.3.8-.3c.4 0 .7 0 1 .4.2.2.3.5.3 1 0 .2 0 .5-.4.7 0 .4-.4.5-.8.5-.3 0-.6 0-.8-.4-.3 0-.4-.4-.4-.7zm-3-7.6v-1c.4-1 1.4-2.7 4.2-2.7 2 0 3.8 1.4 3.8 3s-1.4 2.7-2 3.3c-.8.6-1 1-1.2 1.7-.2.6-.6 1-1.3 1-.3-.2-.6-.3-.7-.5v-.8c0-.2 0-.7.3-1.2l1.4-1.5c1.4-1.2 1.6-2 .8-2.8-.5-.4-1.6-.5-2.2 0-.8.4-1 1-1.2 1.3-.2.5-.3 1-1.3 1-.3-.2-.4-.4-.5-.8z" fill="#FFF"/></g></svg>