<svg width="35" height="36" viewBox="0 0 35 36" xmlns="http://www.w3.org/2000/svg"><title>Group 6</title><g fill="#008FEB" fill-rule="evenodd"><path d="M13 18.3c0-.4 0-.7.4-1 .2-.2.5-.3.8-.3.4 0 .7 0 1 .4.2.2.3.5.3 1 0 .2 0 .5-.4.7 0 .4-.4.5-.8.5-.3 0-.6 0-.8-.4-.3 0-.4-.4-.4-.7zM10 10.7v-1c.4-1 1.5-2.7 4.2-2.7 2 0 3.8 1.4 3.8 3s-1.4 2.7-2 3.3c-.8.6-1 1-1.2 1.7-.2.6-.6 1-1.3 1-.3-.2-.6-.3-.7-.5v-.8c0-.2 0-.7.3-1.2l1.4-1.5c1.4-1.2 1.6-2 .8-2.8-.5-.4-1.6-.5-2.2 0-.8.4-1 1-1.2 1.3-.2.5-.3 1-1.3 1-.3-.2-.4-.4-.5-.8z"/><path d="M29.8 10.2v3c1.4 1.8 2.3 4 2.3 6.3 0 3.8-2.2 7-5.5 9v3.8l-3.7-2.5-3 .3c-2.8 0-4.3-.8-6.4-2.2h-3.1C13 30.4 15.6 32 20 32c.8 0 1.7 0 2.6-.2l6 4v-6.4c3.5-2.4 5.7-6 5.7-10 0-3.6-1.7-7-4.5-9.2zM14.4 25.6c8 0 13.2-6 13.2-13S21 0 14.4 0C6.4 0 0 5.7 0 12.7c0 4 1.5 7.5 4.4 10V29l6.3-3.6 3.7.2zM14.2 2c6.5 0 11.5 5.3 11.5 11C25.7 19 21 24 14.4 24c-1 0-3.6-.3-4.5-.5L6 25.7v-4c-2.7-2.2-4-5-4-8.6C2 7 7 2 14 2z"/></g></svg>